# xmcd
#
# Track frame offsets:
#        150
#        18288
#        49563
#        75588
#        96138
#        124488
#        147663
#
# Disc length: 2280 seconds
#
# Revision: 0
# Processed by: cddbd v1.5.1PL0 Copyright (c) Steve Scherf et al.
# Submitted via: ExactAudioCopy v0.95a5
#
DISCID=5808e607
DTITLE=Fred Jackson - Hootin' 'n Tootin'
DYEAR=1962
DGENRE=Jazz
TTITLE0=Dippin' In The Bag
TTITLE1=Southern Exposure
TTITLE2=Preach Brother
TTITLE3=Hootin' 'n Tootin'
TTITLE4=Easin' On Down
TTITLE5=That's Where It's At
TTITLE6=Way Down Home
EXTD=
EXTT0=
EXTT1=
EXTT2=
EXTT3=
EXTT4=
EXTT5=
EXTT6=
PLAYORDER=
